<?xml version="1.0" encoding="UTF-8"?>
<svg xmlns="http://www.w3.org/2000/svg" viewBox="0 0 378.96 54.21">
  <defs>
    <style>
      .cls-1 {
        fill: #1d1d1b;
      }

      .cls-1, .cls-2, .cls-3, .cls-4 {
        stroke-width: 0px;
      }

      .cls-2 {
        fill: #563e7d;
      }

      .cls-3 {
        fill: #8d8d8e;
      }

      .cls-4 {
        fill: #fff;
      }
    </style>
  </defs>
  <g id="Camada_4" data-name="Camada 4">
    <path class="cls-2" d="M27.07,27.71c-.18.17-.32.29-.44.41-.88.88-1.75,1.77-2.65,2.63-3.43,3.27-7.32,5.84-11.69,7.69-2.58,1.09-5.24,1.93-7.99,2.51-.09.02-.18.03-.27.04-.05,0-.11,0-.19-.01-.21-.23-.34-.53-.5-.81-1.13-2.05-1.97-4.21-2.54-6.48C.17,31.06-.11,28.4.04,25.7c.09-1.73.35-3.44.77-5.13.43-1.72,1.01-3.39,1.77-4.99,1.86-3.91,4.49-7.21,7.91-9.87,1.9-1.49,3.97-2.69,6.19-3.62,2.48-1.03,5.06-1.69,7.74-1.94.97-.09,1.94-.16,2.92-.15,2.94.05,5.82.51,8.6,1.48,6.1,2.14,10.85,5.98,14.27,11.45,1.55,2.48,2.63,5.17,3.3,8.02.56,2.39.79,4.8.69,7.25-.1,2.54-.56,5.01-1.35,7.43-.88,2.68-2.16,5.15-3.82,7.43-2.16,2.96-4.82,5.4-7.97,7.3-2,1.21-4.13,2.12-6.37,2.79-1.2.35-2.41.63-3.64.8-2.06.29-4.13.35-6.21.18-1.59-.13-3.15-.4-4.68-.81-2.35-.63-4.58-1.54-6.67-2.77-1.69-.99-3.25-2.14-4.69-3.46-.83-.76-1.6-1.56-2.32-2.42-.07-.08-.13-.17-.18-.27-.02-.03,0-.07,0-.14.73-.26,1.49-.5,2.22-.79.74-.29,1.47-.6,2.19-.94.72-.34,1.42-.7,2.12-1.08.69-.39,1.37-.8,2.04-1.23.67-.43,1.32-.88,1.96-1.35.64-.47,1.26-.97,1.87-1.47.61-.5,1.2-1.03,1.79-1.54.11.14.02.23-.02.32-.36.79-.64,1.6-.8,2.46-.16.84-.2,1.68-.05,2.53.2,1.13.73,2.03,1.78,2.56.77.39,1.59.47,2.42.24.61-.17,1.2-.39,1.8-.59,1.03-.33,2.06-.33,3.08.02.36.12.71.26,1.07.37.4.12.8.25,1.21.29,1.29.14,2.33-.32,3.09-1.38.34-.48.5-1.03.6-1.61.17-1,.06-1.97-.18-2.95-.31-1.26-.85-2.41-1.53-3.51-1.13-1.84-2.47-3.5-3.99-5.04-.47-.48-.94-.95-1.41-1.42-.14-.14-.28-.27-.47-.45ZM27.6,27.17c.1.12.17.22.26.3,1.36,1.37,2.78,2.68,4.3,3.87,1.27.99,2.59,1.89,4.07,2.55,1.44.64,2.93,1.01,4.52.85.42-.04.82-.13,1.21-.29,1.17-.48,1.83-1.36,2.03-2.59.1-.62-.02-1.22-.21-1.81-.12-.38-.27-.75-.4-1.12-.41-1.18-.42-2.37.02-3.55.13-.36.26-.71.38-1.07.14-.41.23-.84.24-1.27.05-1.39-.8-2.7-2.1-3.16-.5-.18-1.01-.28-1.53-.31-1.12-.06-2.19.15-3.24.52-1.36.48-2.58,1.2-3.76,2.01-1.74,1.21-3.3,2.62-4.82,4.09-.32.31-.63.64-.96.98ZM27.04,26.63c.1-.07.17-.12.24-.18,1.18-1.17,2.37-2.32,3.42-3.61,1.1-1.34,2.12-2.74,2.89-4.3.58-1.16.98-2.36,1.1-3.65.08-.84.02-1.66-.27-2.45-.28-.78-.77-1.38-1.5-1.77-.8-.43-1.65-.5-2.52-.27-.49.13-.96.3-1.44.47-1.24.45-2.46.46-3.7,0-.49-.18-.98-.36-1.49-.49-1.12-.28-2.15-.09-3.05.66-.7.58-1.03,1.37-1.16,2.25-.2,1.36.03,2.66.48,3.93.49,1.35,1.22,2.57,2.03,3.74,1.24,1.78,2.7,3.38,4.21,4.93.24.24.49.47.74.72ZM26.52,27.21c-.08-.1-.12-.16-.17-.21-.98-.99-1.93-2-2.98-2.9-1.48-1.27-3.03-2.44-4.77-3.34-1.11-.57-2.28-1-3.53-1.14-.94-.11-1.87-.06-2.77.27-1.36.5-2.08,1.81-2.1,3-.01.61.17,1.17.36,1.74.13.39.29.78.4,1.18.27.9.26,1.82.02,2.72-.1.36-.24.72-.36,1.08-.12.38-.25.75-.34,1.14-.18.77-.06,1.51.3,2.2.56,1.09,1.51,1.61,2.68,1.78,1.28.18,2.52,0,3.73-.42,1.24-.43,2.37-1.04,3.45-1.77,1.74-1.18,3.34-2.52,4.8-4.02.41-.42.84-.84,1.29-1.3Z"/>
  </g>
  <g id="Camada_8" data-name="Camada 8">
    <g>
      <path class="cls-1" d="M79.3,10.37c8.04,0,11.82,4.09,11.82,4.09l-4.39,5.58s-3.12-2.5-7.25-2.5-8.26,3.25-8.26,8.74c0,6.19,4.17,9.31,8.65,9.31,4.13,0,6.5-2.28,6.5-2.28v-1.19c0-.62-.35-.97-.97-.97h-1.89v-6.59h6.63c2.24,0,3.21.97,3.21,3.21v14.54h-6.59v-.88c0-.66.04-1.32.04-1.32h-.09s-3.12,2.72-8.48,2.72c-7.91,0-15.2-5.8-15.2-16.52,0-9.01,6.9-15.95,16.25-15.95Z"/>
      <path class="cls-1" d="M98.4,18.45c0-.61-.35-.97-.97-.97h-1.89v-6.59h7.51c2.24,0,3.21.97,3.21,3.21v16.43c0,3.29,2.06,5.05,5.05,5.05s5.05-1.76,5.05-5.05V14.1c0-2.24.97-3.21,3.21-3.21h7.51v6.59h-1.89c-.61,0-.97.35-.97.97v12.3c0,7.07-5.1,12.08-12.87,12.08s-12.96-5.01-12.96-12.08v-12.3Z"/>
      <path class="cls-1" d="M129.32,35.72h3.29v-18.23h-3.29v-6.59h14.01v6.59h-3.29v18.23h3.29v6.59h-14.01v-6.59Z"/>
      <path class="cls-1" d="M145.14,35.72h.83c.7,0,.92-.22,1.19-.97l8.57-23.85h8.17l8.57,23.85c.26.75.48.97,1.19.97h.83v6.59h-5.05c-2.2,0-3.07-.66-3.69-2.55l-1.36-4.04h-9.14l-1.36,4.04c-.61,1.89-1.49,2.55-3.69,2.55h-5.05v-6.59ZM162.71,29.35l-1.58-5.23c-.61-1.98-1.27-5.18-1.27-5.18h-.09s-.66,3.21-1.27,5.18l-1.58,5.23h5.8Z"/>
    </g>
  </g>
  <g id="Camada_6" data-name="Camada 6">
    <ellipse class="cls-3" cx="194.96" cy="27.39" rx="16.98" ry="17.02"/>
  </g>
  <g id="Camada_5" data-name="Camada 5">
    <g>
      <path class="cls-4" d="M184.65,23.23h-1.1v-2.53h4.97c3.8,0,6.23,2.21,6.23,6.01s-2.43,6.06-6.23,6.06h-2.63c-.86,0-1.23-.37-1.23-1.23v-8.31ZM188.05,30.24h.35c1.99,0,3.21-1.22,3.21-3.53s-1.27-3.48-3.21-3.48h-.73v6.64c0,.24.13.37.37.37Z"/>
      <path class="cls-4" d="M195.11,30.24h.32c.27,0,.35-.08.46-.37l3.29-9.17h3.14l3.29,9.17c.1.29.19.37.46.37h.32v2.53h-1.94c-.84,0-1.18-.25-1.42-.98l-.52-1.55h-3.51l-.52,1.55c-.24.73-.57.98-1.42.98h-1.94v-2.53ZM201.87,27.79l-.61-2.01c-.24-.76-.49-1.99-.49-1.99h-.03s-.25,1.23-.49,1.99l-.61,2.01h2.23Z"/>
    </g>
  </g>
  <g id="Camada_7" data-name="Camada 7">
    <g>
      <path class="cls-2" d="M218.02,18.54h-2.86v-6.59h15.24c6.11,0,10.24,4.48,10.24,10.81s-4.13,10.89-10.24,10.89h-4.52v9.71h-7.86v-24.82ZM228.83,27.06c2.55,0,3.78-1.8,3.78-4.31s-1.23-4.22-3.65-4.22h-3.07v8.52h2.94Z"/>
      <path class="cls-2" d="M245.48,18.54h-2.86v-6.59h14.67c6.11,0,10.37,3.56,10.37,9.88s-4.61,8.17-4.61,8.17v.09s1.23.53,1.93,1.89l1.98,3.78c.48.92,1.27,1.01,2.15,1.01h.53v6.59h-4.3c-2.2,0-3.43-.4-4.44-2.33l-3.69-7.07c-.53-.97-1.19-1.19-2.81-1.19h-1.05v10.59h-7.86v-24.82ZM256.07,26.18c2.33,0,3.56-1.36,3.56-3.87s-1.23-3.78-3.43-3.78h-2.86v7.64h2.72Z"/>
      <path class="cls-2" d="M287.43,11.42c9.49,0,16.43,7.03,16.43,16.04s-6.94,16.43-16.43,16.43-16.43-7.21-16.43-16.43,6.94-16.04,16.43-16.04ZM287.43,36.64c4.57,0,8.26-3.95,8.26-9.18s-3.69-8.79-8.26-8.79-8.26,3.78-8.26,8.79,3.69,9.18,8.26,9.18Z"/>
      <path class="cls-2" d="M305.61,36.77h1.1c.62,0,.92-.35.97-.97l1.93-23.85h8.21l5.01,12.39c.79,1.98,1.58,4.52,1.58,4.52h.09s.79-2.55,1.58-4.52l5.01-12.39h8.22l1.93,23.85c.04.61.35.97.97.97h1.1v6.59h-6.5c-2.24,0-3.03-.97-3.21-3.21l-.7-10.06c-.18-2.37,0-5.27,0-5.27h-.09s-.92,3.34-1.76,5.27l-3.51,8.21h-6.15l-3.51-8.21c-.83-1.93-1.76-5.27-1.76-5.27h-.09s.18,2.9,0,5.27l-.7,10.06c-.18,2.24-.97,3.21-3.21,3.21h-6.5v-6.59Z"/>
      <path class="cls-2" d="M361.48,11.42c9.49,0,16.43,7.03,16.43,16.04s-6.94,16.43-16.43,16.43-16.43-7.21-16.43-16.43,6.94-16.04,16.43-16.04ZM361.48,36.64c4.57,0,8.26-3.95,8.26-9.18s-3.69-8.79-8.26-8.79-8.26,3.78-8.26,8.79,3.69,9.18,8.26,9.18Z"/>
    </g>
  </g>
</svg>